<?xml version="1.0" encoding="UTF-8"?>
<svg width="816px" height="480px" viewBox="0 0 816 480" version="1.1" xmlns="http://www.w3.org/2000/svg" xmlns:xlink="http://www.w3.org/1999/xlink">
    <!-- Generator: Sketch 55.1 (78136) - https://sketchapp.com -->
    <title>404</title>
    <desc>Created with Sketch.</desc>
    <defs>
        <polygon id="path-1" points="0.378238442 0.413511264 661.606632 0.413511264 661.606632 433.750271 0.378238442 433.750271"></polygon>
        <polygon id="path-3" points="0 0.847922727 815.985335 0.847922727 815.985335 46.9997864 0 46.9997864"></polygon>
    </defs>
    <g id="v2" stroke="none" stroke-width="1" fill="none" fill-rule="evenodd">
        <g id="Recommender-v2-new-Copy-2" transform="translate(-822.000000, -179.000000)">
            <g id="404" transform="translate(822.000000, 179.000000)">
                <g id="Group-3" transform="translate(78.000000, 0.000000)">
                    <mask id="mask-2" fill="white">
                        <use xlink:href="#path-1"></use>
                    </mask>
                    <g id="Clip-2"></g>
                    <path d="M661.606632,433.750271 L0.378238442,433.750271 L0.378238442,18.0529972 C0.378238442,8.30963808 8.27237827,0.412003671 18.0114261,0.412003671 L643.973444,0.412003671 C653.712492,0.412003671 661.606632,8.30963808 661.606632,18.0529972 L661.606632,433.750271 Z" id="Fill-1" fill="#DDDDDD" mask="url(#mask-2)"></path>
                </g>
                <g id="Group-6" transform="translate(0.000000, 433.000000)">
                    <mask id="mask-4" fill="white">
                        <use xlink:href="#path-3"></use>
                    </mask>
                    <g id="Clip-5"></g>
                    <path d="M792.76119,46.9997864 L23.2250051,46.9997864 C10.3973594,46.9997864 -0.000645037497,36.6683318 -0.000645037497,23.9249227 C-0.000645037497,11.1793773 10.3973594,0.847922727 23.2250051,0.847922727 L792.76119,0.847922727 C805.588836,0.847922727 815.98684,11.1793773 815.98684,23.9249227 C815.98684,36.6683318 805.588836,46.9997864 792.76119,46.9997864" id="Fill-4" fill="#BFBFBF" mask="url(#mask-4)"></path>
                </g>
                <path d="M709.173764,411 L107.828385,411 C101.296228,411 96,405.702847 96,399.166896 L96,31.8352548 C96,25.2993036 101.296228,20 107.828385,20 L709.173764,20 C715.705922,20 721,25.2993036 721,31.8352548 L721,399.166896 C721,405.702847 715.705922,411 709.173764,411" id="Fill-7" fill="#FFFFFF"></path>
                <path d="M348.454505,225 C346.266703,225 344.08106,224.164193 342.411592,222.496897 L290.502582,170.588294 C287.165806,167.249384 287.165806,161.839313 290.502582,158.502563 C293.839359,155.165812 299.251632,155.165812 302.588408,158.502563 L354.497418,210.413326 C357.834194,213.750076 357.834194,219.160147 354.497418,222.496897 C352.82795,224.164193 350.642307,225 348.454505,225" id="Fill-9" fill="#00763B"></path>
                <path d="M296.545495,225 C294.357693,225 292.17205,224.164193 290.502582,222.496897 C287.165806,219.160147 287.165806,213.750076 290.502582,210.413326 L342.411592,158.502563 C345.748368,155.165812 351.160641,155.165812 354.497418,158.502563 C357.834194,161.839313 357.834194,167.249384 354.497418,170.588294 L302.588408,222.496897 C300.91894,224.164193 298.733297,225 296.545495,225" id="Fill-11" fill="#00763B"></path>
                <path d="M499.454505,225 C497.266703,225 495.08106,224.164193 493.411592,222.496897 L441.502582,170.588294 C438.165806,167.249384 438.165806,161.839313 441.502582,158.502563 C444.839359,155.165812 450.251632,155.165812 453.588408,158.502563 L505.497418,210.413326 C508.834194,213.750076 508.834194,219.160147 505.497418,222.496897 C503.82795,224.164193 501.642307,225 499.454505,225" id="Fill-13" fill="#00763B"></path>
                <path d="M447.545495,225 C445.357693,225 443.17205,224.164193 441.502582,222.496897 C438.165806,219.160147 438.165806,213.750076 441.502582,210.413326 L493.411592,158.502563 C496.748368,155.165812 502.160641,155.165812 505.497418,158.502563 C508.834194,161.839313 508.834194,167.249384 505.497418,170.588294 L453.588408,222.496897 C451.91894,224.164193 449.733297,225 447.545495,225" id="Fill-15" fill="#00763B"></path>
                <path d="M374.635386,311 C368.374421,311 361.231965,307.957228 352.731708,304.035004 C352.009704,303.701198 351.311407,303.378091 350.643283,303.076381 L350.154044,302.937295 C345.483645,301.610629 341.789568,300.566415 334.233306,307.321712 C330.7332,310.450076 325.340797,310.167624 322.191995,306.694755 C319.038882,303.219747 319.321219,297.863868 322.821324,294.735504 C337.397194,281.706361 348.746674,284.926736 354.837375,286.657821 L355.833095,286.933853 C356.270608,287.053681 356.69519,287.205605 357.104685,287.391767 C357.986177,287.787627 358.932326,288.222003 359.919425,288.677777 C363.544534,290.353227 372.038325,294.260472 374.732371,294.063612 C380.327368,293.39172 382.920118,292.10143 385.922364,290.605722 C389.916019,288.617863 394.444173,286.362531 403.175039,286.362531 C412.280917,286.362531 416.720706,288.587906 420.824278,291.070055 C423.098053,292.443796 424.352402,293.197 429.309448,293.019398 C432.212552,292.912408 435.240661,291.769764 438.742922,290.445238 C447.213004,287.244121 458.814647,282.857565 473.487503,293.451634 C477.295808,296.203396 478.138506,301.49936 475.369026,305.280358 C472.59739,309.061356 467.265333,309.893732 463.454873,307.14625 C456.254225,301.946575 452.187292,303.4808 444.80776,306.271078 C440.516682,307.893034 435.652311,309.731108 429.940932,309.940807 C420.576426,310.274613 416.119395,308.051378 411.955476,305.532853 C409.645062,304.137714 408.252778,303.294639 403.175039,303.294639 C398.480932,303.294639 396.73519,304.165531 393.564836,305.742551 C389.892311,307.569927 385.321053,309.846657 376.756139,310.875893 C376.062153,310.959344 375.35308,311 374.635386,311" id="Fill-17" fill="#ADACA6"></path>
            </g>
        </g>
    </g>
</svg>