<?xml version="1.0" encoding="UTF-8"?>
<svg width="79px" height="22px" viewBox="0 0 79 22" version="1.1" xmlns="http://www.w3.org/2000/svg" xmlns:xlink="http://www.w3.org/1999/xlink">
    <!-- Generator: Sketch 55.1 (78136) - https://sketchapp.com -->
    <title>drogerije_white</title>
    <desc>Created with Sketch.</desc>
    <defs>
        <polygon id="path-1" points="0 0.110283981 78.8530466 0.110283981 78.8530466 21.6156603 0 21.6156603"></polygon>
    </defs>
    <g id="drogerije" stroke="none" stroke-width="1" fill="none" fill-rule="evenodd">
        <g id="drogerije_white">
            <mask id="mask-2" fill="white">
                <use xlink:href="#path-1"></use>
            </mask>
            <g id="Clip-2"></g>
            <path d="M78.8530466,17.5410939 C78.7514286,17.1455172 78.667326,16.4932884 78.667326,15.6674892 L78.667326,11.8178527 C78.667326,9.94454038 77.6767052,9.08516735 75.9137875,9.08516735 C74.7895164,9.08516735 73.8659587,9.46300691 73.0770508,10.2198555 L73.7319753,11.0953576 C74.4538201,10.4426415 75.0916575,10.2033366 75.8305893,10.2033366 C76.9387729,10.2033366 77.4414369,10.7004144 77.4414369,11.9210594 L77.4414369,12.6937934 L77.0898434,12.6937934 C75.1422999,12.6937934 72.7910449,13.3479226 72.7910449,15.5304163 C72.7910449,16.8715665 73.7480628,17.7475559 75.0916575,17.7475559 C76.0817547,17.7475559 76.9724234,17.2316689 77.5095471,16.544648 C77.5255395,16.8020311 77.5764199,17.3180643 77.6271575,17.5410939 L78.8530466,17.5410939 Z M77.4414369,15.4783745 C76.921305,16.1833761 76.1996506,16.6651532 75.2932752,16.6651532 C74.8053184,16.6651532 74.1011318,16.3557282 74.1011318,15.495673 C74.1011318,14.1031145 75.3602907,13.6227505 77.0898434,13.6227505 L77.4414369,13.6227505 L77.4414369,15.4783745 Z M71.7289345,6.81622959 C71.7289345,6.30156085 71.3277457,5.88819833 70.8237966,5.88819833 C70.3198475,5.88819833 69.9160884,6.30156085 69.9160884,6.81622959 C69.9160884,7.33211654 70.3198475,7.74450449 70.8237966,7.74450449 C71.3277457,7.74450449 71.7289345,7.33211654 71.7289345,6.81622959 L71.7289345,6.81622959 Z M70.234317,18.418204 C70.234317,19.6732025 69.9511669,20.4123139 69.0604982,20.4123139 C68.7238975,20.4123139 68.5729222,20.3599797 68.4899143,20.3251389 L68.288249,21.3744063 C68.3551217,21.4077852 68.6075722,21.4944729 69.1608787,21.4944729 C70.8062336,21.4944729 71.461396,20.3431684 71.461396,18.64099 L71.461396,9.29065476 L70.234317,9.29065476 L70.234317,18.418204 Z M67.6333245,6.81622959 C67.6333245,6.30156085 67.230565,5.88819833 66.7267111,5.88819833 C66.2228571,5.88819833 65.820526,6.30156085 65.820526,6.81622959 C65.820526,7.33211654 66.2228571,7.74450449 66.7267111,7.74450449 C67.230565,7.74450449 67.6333245,7.33211654 67.6333245,6.81622959 L67.6333245,6.81622959 Z M64.7844507,10.4603786 L65.086211,9.25678857 C64.9848786,9.20567254 64.7335228,9.08516735 64.2471366,9.08516735 C63.12139,9.08516735 62.4168703,10.0309357 62.0974994,10.5801529 L62.0974994,9.29162933 L60.8716579,9.29162933 L60.8716579,17.5410939 L62.0974994,17.5410939 L62.0974994,12.0065289 C62.1980703,11.7494381 62.869939,10.3221363 64.0795978,10.3221363 C64.4982069,10.3221363 64.6998722,10.408288 64.7844507,10.4603786 L64.7844507,10.4603786 Z M59.4889392,13.3822761 C59.5049315,13.1753269 59.5221138,12.9868944 59.5221138,12.7977797 C59.5221138,10.546579 58.3474382,9.08516735 56.3490143,9.08516735 C54.2008526,9.08516735 52.7237505,10.9417172 52.7237505,13.3642954 C52.7237505,15.8048543 53.9990445,17.7475559 56.5344017,17.7475559 C57.9946072,17.7475559 58.9008399,17.1803092 59.3041229,16.9047505 L58.8004118,15.9258468 C58.4475807,16.1490714 57.6937037,16.6649096 56.5680523,16.6649096 C54.754159,16.6649096 54.0658696,15.1346447 54.032457,13.3822761 L59.4889392,13.3822761 Z M58.2630501,12.3846608 L54.1003769,12.3846608 C54.3184153,11.0960398 55.0228399,10.16757 56.3167916,10.16757 C57.7085061,10.16757 58.2294471,11.216545 58.2630501,12.3846608 L58.2630501,12.3846608 Z M47.0767405,15.720067 C47.0767405,15.4447519 47.2449933,15.2205041 47.6141498,15.0318767 C47.8987754,15.1000476 48.1848765,15.135132 48.5027719,15.135132 C50.4678308,15.135132 51.7273705,13.8462674 51.7273705,12.1097842 C51.7273705,11.4227146 51.525372,10.7868585 51.1401279,10.2883188 L52.3818666,10.2883188 L52.3818666,9.29162933 L49.7621688,9.29162933 C49.3759728,9.15358194 48.9575541,9.08516735 48.5027719,9.08516735 C46.5394264,9.08516735 45.2802199,10.3739832 45.2802199,12.1097842 C45.2802199,13.2096803 45.8003994,14.1552051 46.7075364,14.6707997 C46.2535633,14.9461635 45.884502,15.4103984 45.884502,15.9605901 C45.884502,16.595959 46.1706507,16.9565487 46.6061088,17.1803092 C45.8003994,17.6433259 45.2295299,18.3834607 45.2295299,19.3119305 C45.2295299,20.9447198 46.6570368,21.6156603 48.4523675,21.6156603 C50.5347988,21.6156603 52.4141844,20.5827169 52.4141844,18.882244 C52.4141844,16.3211799 49.980112,16.4752589 48.2182891,16.3722959 C47.5807849,16.3379911 47.0767405,16.1665648 47.0767405,15.720067 L47.0767405,15.720067 Z M46.5394264,12.1097842 C46.5394264,10.9585284 47.261176,10.1171362 48.5027719,10.1171362 C49.7464144,10.1171362 50.4678308,10.9585284 50.4678308,12.1097842 C50.4678308,13.2615273 49.7464144,14.1031145 48.5027719,14.1031145 C47.261176,14.1031145 46.5394264,13.2615273 46.5394264,12.1097842 L46.5394264,12.1097842 Z M47.5297617,17.4374 C48.0165286,17.506984 48.5710249,17.5240877 49.0909664,17.5598056 C50.0308972,17.6095085 51.172541,17.6270507 51.172541,18.9342859 C51.172541,19.9472994 50.0988171,20.6170704 48.5027719,20.6170704 C47.0608434,20.6170704 46.4390935,19.9650852 46.4390935,19.1734446 C46.4390935,18.4688815 46.7919246,17.88458 47.5297617,17.4374 L47.5297617,17.4374 Z M44.45571,13.3992823 C44.45571,11.4745616 43.3317245,9.08516735 40.6115986,9.08516735 C37.8921391,9.08516735 36.9350736,11.5084278 36.9350736,13.4336358 C36.9350736,15.3581129 37.9428291,17.7470686 40.6624314,17.7470686 C43.3817482,17.7470686 44.45571,15.3238082 44.45571,13.3992823 L44.45571,13.3992823 Z M43.1467179,13.4336358 C43.1467179,15.2037415 42.3572388,16.6649096 40.6792329,16.6649096 C39.0001323,16.6649096 38.2452557,15.1684622 38.2452557,13.3992823 C38.2452557,11.6289817 38.916458,10.16757 40.5951303,10.16757 C42.2745165,10.16757 43.1467179,11.6627991 43.1467179,13.4336358 L43.1467179,13.4336358 Z M36.610372,10.4603786 L36.9119418,9.25678857 C36.8120849,9.20567254 36.5596819,9.08516735 36.0728199,9.08516735 C34.948406,9.08516735 34.2433151,10.0309357 33.9243726,10.5801529 L33.9243726,9.29162933 L32.6984835,9.29162933 L32.6984835,17.5410939 L33.9243726,17.5410939 L33.9243726,12.0065289 C34.0253242,11.7494381 34.6965742,10.3221363 35.9054714,10.3221363 C36.3252704,10.3221363 36.5266977,10.408288 36.610372,10.4603786 L36.610372,10.4603786 Z M29.8343313,17.5410939 L31.0603632,17.5410939 C30.9596971,17.111651 30.8597926,16.4239479 30.8597926,15.856214 L30.8597926,5.16662905 L29.6335227,5.16662905 L29.6335227,9.80678535 C29.113962,9.32637264 28.4253394,9.08516735 27.5854083,9.08516735 C25.5541906,9.08516735 24.0269696,10.8216505 24.0269696,13.4336358 C24.0269696,16.1833761 25.4200644,17.7475559 27.3499973,17.7475559 C28.3245781,17.7475559 29.1298116,17.3000835 29.6843555,16.595959 C29.7002527,16.9058712 29.7843076,17.3702036 29.8343313,17.5410939 L29.8343313,17.5410939 Z M29.6335227,15.4783745 C29.113962,16.200431 28.3245781,16.6130626 27.601829,16.6130626 C25.9905055,16.6130626 25.3363426,15.2726434 25.3363426,13.3983565 C25.3363426,11.5430249 26.1756549,10.16757 27.703447,10.16757 C28.5256723,10.16757 29.1298116,10.4426415 29.6335227,10.9244186 L29.6335227,15.4783745 Z M21.5486327,5.14197251 L24.1391064,3.22344025 L20.9384963,3.22344025 L19.9504933,0.110283981 L18.9680114,3.22344025 L15.7679249,3.22344025 L18.3508784,5.14197251 L17.367873,8.25751647 L19.9504933,6.3351834 L22.5386824,8.25751647 L21.5486327,5.14197251 Z M15.3159509,14.2913521 L15.3159509,9.24991787 L12.725382,9.24991787 L12.725382,14.1701647 C12.725382,14.9445068 12.3491336,15.625193 11.4457567,15.6748471 C10.5467587,15.625193 10.1608482,14.9445068 10.1608482,14.1701647 L10.1608482,9.24991787 L7.57732358,9.24991787 L7.57732358,14.2913521 C7.57732358,17.1904935 9.47208284,17.5958158 10.5129177,17.7340581 C12.935329,18.0472839 15.3159509,17.3940805 15.3159509,14.2913521 L15.3159509,14.2913521 Z M4.11198314,14.628942 L4.11198314,11.1627976 L5.93758505,11.1627976 L6.6585255,9.24991787 L4.11198314,9.24991787 L4.11198314,6.53029168 L1.52350848,7.28733519 L1.52350848,9.24991787 L0,9.24991787 L0,11.1627976 L1.52350848,11.1627976 L1.52350848,15.6639807 C1.52350848,16.8031519 2.08899957,17.7153464 3.6995616,17.7153464 C4.50308156,17.7153464 5.79884197,17.5044014 6.81107149,16.7686035 L6.16395283,15.1585216 C5.8568618,15.3322869 5.34191793,15.5247638 4.87671215,15.5247638 C4.34610911,15.5247638 4.11198314,15.2293239 4.11198314,14.628942 L4.11198314,14.628942 Z M16.894671,14.9445068 L16.1066198,16.8351664 C16.9239427,17.3763434 18.0568287,17.7153464 19.5120842,17.7153464 C21.2568201,17.7153464 22.9544356,16.994703 22.9544356,15.0522451 C22.9544356,12.1083224 19.1207478,12.5100875 19.1207478,11.5645141 C19.1207478,11.2487544 19.3908089,11.0726015 20.0268853,11.0726015 C20.9152217,11.0726015 21.7556288,11.336368 22.5235467,11.649545 L22.5235467,9.47913599 C21.8219304,9.21463855 21.0516802,9.05865913 19.9217451,9.05865913 C17.9250823,9.05865913 16.6190411,10.0879966 16.6190411,11.687212 C16.6190411,14.4740833 20.3867605,14.001857 20.3867605,15.1220728 C20.3867605,15.5432319 19.9562524,15.7714754 19.2230797,15.7714754 C18.4685839,15.7714754 17.6467394,15.490654 16.894671,14.9445068 L16.894671,14.9445068 Z M66.1065319,17.540363 L67.3483181,17.540363 L67.3483181,9.29065476 L66.1065319,9.29065476 L66.1065319,17.540363 Z" id="Fill-1" fill="#FFFFFF" mask="url(#mask-2)"></path>
        </g>
    </g>
</svg>