<svg xmlns="http://www.w3.org/2000/svg" xmlns:xlink="http://www.w3.org/1999/xlink" viewBox="0 0 877.46 160.3"><defs><style>.cls-1{fill:none;}.cls-2{fill:url(#linear-gradient);}.cls-3,.cls-8{fill:#fff;}.cls-3,.cls-4{opacity:0.3;}.cls-4,.cls-7{fill:#003301;}.cls-5{opacity:0.34;}.cls-6{clip-path:url(#clip-path);}.cls-9{fill:#293c32;}.cls-10{fill:url(#linear-gradient-2);}.cls-11{fill:url(#linear-gradient-3);}.cls-12{fill:url(#linear-gradient-4);}.cls-13{fill:url(#linear-gradient-5);}</style><linearGradient id="linear-gradient" x1="80.15" y1="154.12" x2="80.15" gradientUnits="userSpaceOnUse"><stop offset="0" stop-color="#006a30"/><stop offset="0.26" stop-color="#006a30"/><stop offset="1" stop-color="#218737"/></linearGradient><clipPath id="clip-path"><rect class="cls-1" x="30.89" y="80.98" width="98.79" height="50.96"/></clipPath><linearGradient id="linear-gradient-2" x1="1154.39" y1="1152.21" x2="1156.7" y2="1152.21" gradientTransform="matrix(16.6, -16.6, -16.6, -16.6, 384.43, 38359.38)" xlink:href="#linear-gradient"/><linearGradient id="linear-gradient-3" x1="1154.62" y1="1152.21" x2="1156.47" y2="1152.21" gradientTransform="matrix(16.6, -16.6, -16.6, -16.6, 384.43, 38359.38)" xlink:href="#linear-gradient"/><linearGradient id="linear-gradient-4" x1="1152.07" y1="1154.76" x2="1153.92" y2="1154.76" gradientTransform="matrix(16.6, -16.6, -16.6, -16.6, 320.06, 38359.38)" xlink:href="#linear-gradient"/><linearGradient id="linear-gradient-5" x1="1151.84" y1="1154.76" x2="1154.15" y2="1154.76" gradientTransform="matrix(16.6, -16.6, -16.6, -16.6, 320.06, 38359.38)" xlink:href="#linear-gradient"/></defs><title>hn-logo_color</title><g id="Layer_2" data-name="Layer 2"><g id="Layer_1-2" data-name="Layer 1"><path class="cls-2" d="M80.61,0Q59.55,0,49,1.37T24.73,9.62Q11,16.49,5.5,33.89T0,79.69Q0,109,5.5,126.41t18.77,24.27c2.3,1.19,4.54,2.25,6.72,3.2,3.24,1.4,3.39-3.6,3.53-8.61.13-4.57.26-9.14,2.74-8.82,7,.91,29.29,7.4,43.33,7.4s30.6-.67,37.61-1.58c2.66-.35,4.91,2.68,6.72,5.71s3.22,6.08,4.17,5.71c2.13-.82,4.25-1.9,6.47-3q13.74-6.87,19.24-24.27t5.49-45.8q0-29.31-5.49-46.72T136,9.62q-13.26-6.87-23.81-8.25T80.61,0Z"/><path class="cls-3" d="M139,43.53q-4.32-13.71-14.8-19.14t-18.78-6.5a210.17,210.17,0,0,0-24.91-1.08,210.6,210.6,0,0,0-24.92,1.08Q47.3,19,36.46,24.39T21.29,43.53Q17,57.26,17,79.64q0,23.11,4.33,36.83T36.1,135.6q10.47,5.43,18.77,6.5t24.92,1.09q16.62,0,24.91-1.09t19.14-6.5q10.83-5.41,15.16-19.13t4.34-36.11q0-23.1-4.34-36.83"/><path class="cls-4" d="M129,63.15l10.4,85.33s-.17.72-10.4,5.29c-11.45,5.12,0-90.62,0-90.62"/><g class="cls-5"><g class="cls-6"><rect class="cls-7" x="51.72" y="97.18" width="57.14" height="32.45"/></g></g><path class="cls-8" d="M102.87,104.65a22.87,22.87,0,0,1-45.73,0,4.41,4.41,0,1,1,8.82,0,14.05,14.05,0,0,0,28.1,0,4.41,4.41,0,1,1,8.81,0M94,57.28H66a14,14,0,0,1,28.05,0m35,96.44V65.33s0-8-8-8h-18.1a22.84,22.84,0,0,0-45.68,0H39.07s-8.06,0-8.06,8v88.55a64.8,64.8,0,0,0,17.08,5q10.54,1.38,31.6,1.38t31.6-1.38a68.2,68.2,0,0,0,17.71-5.2"/><path class="cls-9" d="M427.19,67.37v57.87h25.32V67.6c-.42.18-.83.37-1.3.52A38.26,38.26,0,0,1,440,69.44a37.36,37.36,0,0,1-11-1.32,11.91,11.91,0,0,1-1.85-.75M242.44,125.24h25.32V85.68q0-15.33-6.78-23.07t-18-7.73q-12.06,0-18.35,8.62V33.2A2.87,2.87,0,0,0,221,30.43l-19.57,5.4a2.89,2.89,0,0,0-2.11,2.78v86.63h25.32V90.06q0-5.07,2.4-7.94A8.47,8.47,0,0,1,234,79.24q8.49,0,8.49,9.18Zm35.83,0h25.32V67.49a13.33,13.33,0,0,1-1.58.63,38.38,38.38,0,0,1-11.2,1.32,37.36,37.36,0,0,1-11-1.32,12.09,12.09,0,0,1-1.56-.63Zm83.85,0V102.51a63.75,63.75,0,0,1-7.87.07,7.25,7.25,0,0,1-4.86-1.85q-1.63-1.64-1.64-5.06V80.88h14.37V59.67a2.88,2.88,0,0,0-2.87-2.87h-11.5V41.49a2.88,2.88,0,0,0-3.7-2.76l-19.56,5.82a2.87,2.87,0,0,0-2.06,2.76V56.8h-6.71a2.88,2.88,0,0,0-2.88,2.87V80.88h9.59V97q0,17.79,9.1,24.5t30.59,3.7M418.28,82.8V58.5A2.93,2.93,0,0,0,415,55.62a22,22,0,0,0-9.72,3.64,18.57,18.57,0,0,0-7.53,10.81V59.67a2.88,2.88,0,0,0-2.88-2.87H375.31a2.88,2.88,0,0,0-2.88,2.87v65.57h25.32V99.77q0-9.43,6.16-13.75a19.63,19.63,0,0,1,14.37-3.22M534,125.24h25.32V85.68q0-15.33-6.78-23.07t-18-7.73q-12,0-18.34,8.62V59.67a2.88,2.88,0,0,0-2.88-2.87H493.72a2.88,2.88,0,0,0-2.88,2.87v65.57h25.32V90.06q0-5.07,2.4-7.94a8.48,8.48,0,0,1,6.91-2.88q8.49,0,8.49,9.18ZM613.35,91a13.14,13.14,0,0,1-3.36,9.18,12.4,12.4,0,0,1-17.65,0,14.19,14.19,0,0,1,0-18.34,12.37,12.37,0,0,1,17.65,0A13.09,13.09,0,0,1,613.35,91m0,34.23h25.32V59.67a2.88,2.88,0,0,0-2.88-2.87H616.23a2.88,2.88,0,0,0-2.88,2.87V63q-6.57-8.07-18.35-8.07a28.31,28.31,0,0,0-22.58,10.27Q563.66,75.41,563.66,91t8.76,25.88A28.33,28.33,0,0,0,595,127.15q11.78,0,18.35-8.07Zm106.34,0L697.51,91l18.15-29.84a2.88,2.88,0,0,0-2.46-4.37H691.29a2.89,2.89,0,0,0-2.54,1.5l-13.55,25V33.2a2.87,2.87,0,0,0-3.64-2.77L652,35.83a2.89,2.89,0,0,0-2.12,2.78v86.63H675.2V97.86l16.42,27.38Zm46.3,0h25.32V59.67a2.87,2.87,0,0,0-2.88-2.87H768.87A2.88,2.88,0,0,0,766,59.67V92q0,5.07-2.4,7.94a8.45,8.45,0,0,1-6.91,2.88q-8.48,0-8.48-9.18V59.67a2.88,2.88,0,0,0-2.88-2.87H725.75a2.88,2.88,0,0,0-2.88,2.87V96.36q0,15.31,6.78,23.06t18,7.73q12,0,18.34-8.62ZM852.14,91a13.18,13.18,0,0,1-3.35,9.18,12.41,12.41,0,0,1-17.66,0,14.23,14.23,0,0,1,0-18.34,12.39,12.39,0,0,1,17.66,0A13.13,13.13,0,0,1,852.14,91m25.32,0q0-15.6-8.76-25.86a28.31,28.31,0,0,0-22.58-10.27q-11.77,0-18.34,8.07V59.67a2.88,2.88,0,0,0-2.88-2.87H805.33a2.88,2.88,0,0,0-2.88,2.87v92.94h25.33V119.08q6.57,8.07,18.34,8.07a28.33,28.33,0,0,0,22.58-10.26q8.76-10.27,8.76-25.88"/><path class="cls-10" d="M452.9,45a12.94,12.94,0,0,0-1.38-4,6.4,6.4,0,0,0-4-3.2,26.06,26.06,0,0,0-7.63-.91,26.66,26.66,0,0,0-7.78.91,6.42,6.42,0,0,0-4,3.13,12.09,12.09,0,0,0-1.38,4,44.76,44.76,0,0,0-.23,5.26,45,45,0,0,0,.23,5.27,12.89,12.89,0,0,0,1.38,4,6.35,6.35,0,0,0,4,3.2,26,26,0,0,0,7.63.92,26.66,26.66,0,0,0,7.78-.92,6.46,6.46,0,0,0,4-3.12,12.17,12.17,0,0,0,1.38-4,45,45,0,0,0,.23-5.27A44.88,44.88,0,0,0,452.9,45Z"/><path class="cls-11" d="M451.52,59.5a6.46,6.46,0,0,1-4,3.12,26.66,26.66,0,0,1-7.78.92,26,26,0,0,1-7.63-.92,6.35,6.35,0,0,1-4-3.2,12.89,12.89,0,0,1-1.38-4,45,45,0,0,1-.23-5.27,44.76,44.76,0,0,1,.23-5.26,12.09,12.09,0,0,1,1.38-4,6.42,6.42,0,0,1,4-3.13,26.66,26.66,0,0,1,7.78-.91,26.06,26.06,0,0,1,7.63.91,6.4,6.4,0,0,1,4,3.2,12.94,12.94,0,0,1,1.38,4,44.88,44.88,0,0,1,.23,5.26,45,45,0,0,1-.23,5.27A12.17,12.17,0,0,1,451.52,59.5Z"/><path class="cls-12" d="M302.54,59.5a6.46,6.46,0,0,1-4,3.12,26.66,26.66,0,0,1-7.78.92,26,26,0,0,1-7.63-.92,6.39,6.39,0,0,1-4-3.2,13.1,13.1,0,0,1-1.37-4,45,45,0,0,1-.23-5.27,44.76,44.76,0,0,1,.23-5.26,12.28,12.28,0,0,1,1.37-4,6.47,6.47,0,0,1,4-3.13,26.66,26.66,0,0,1,7.78-.91,26.06,26.06,0,0,1,7.63.91,6.4,6.4,0,0,1,4,3.2,12.94,12.94,0,0,1,1.38,4,44.88,44.88,0,0,1,.23,5.26,45,45,0,0,1-.23,5.27A12.17,12.17,0,0,1,302.54,59.5Z"/><path class="cls-13" d="M303.92,45a12.94,12.94,0,0,0-1.38-4,6.4,6.4,0,0,0-4-3.2,26.06,26.06,0,0,0-7.63-.91,26.66,26.66,0,0,0-7.78.91,6.47,6.47,0,0,0-4,3.13,12.28,12.28,0,0,0-1.37,4,44.76,44.76,0,0,0-.23,5.26,45,45,0,0,0,.23,5.27,13.1,13.1,0,0,0,1.37,4,6.39,6.39,0,0,0,4,3.2,26,26,0,0,0,7.63.92,26.66,26.66,0,0,0,7.78-.92,6.46,6.46,0,0,0,4-3.12,12.17,12.17,0,0,0,1.38-4,45,45,0,0,0,.23-5.27A44.88,44.88,0,0,0,303.92,45Z"/></g></g></svg>