<svg xmlns="http://www.w3.org/2000/svg" viewBox="0 0 877.39 160.3"><defs><style>.cls-1{fill:#fff;}.cls-2{fill:none;}</style></defs><title>hn-logo_white</title><g id="Layer_2" data-name="Layer 2"><g id="Layer_1-2" data-name="Layer 1"><path class="cls-1" d="M429.92,68.28V124h24.37V68.5c-.41.18-.8.36-1.25.51a37.18,37.18,0,0,1-10.78,1.26A36.15,36.15,0,0,1,431.7,69a12,12,0,0,1-1.78-.73M240.82,124H265.2V85.9q0-14.76-6.53-22.2t-17.32-7.44q-11.59,0-17.66,8.3V35.39a2.77,2.77,0,0,0-3.5-2.67l-18.84,5.21a2.76,2.76,0,0,0-2,2.67V124h24.37V90.12q0-4.87,2.31-7.64a8.14,8.14,0,0,1,6.65-2.77q8.17,0,8.17,8.83Zm37.31,0H302.5V68.39A12.52,12.52,0,0,1,301,69a37.15,37.15,0,0,1-10.77,1.26A36.27,36.27,0,0,1,279.63,69a12.69,12.69,0,0,1-1.5-.61Zm83.52,0V102.11a64.78,64.78,0,0,1-7.57.06,7,7,0,0,1-4.68-1.78,6.65,6.65,0,0,1-1.58-4.87V81.29h13.83V60.87a2.77,2.77,0,0,0-2.77-2.77H347.82V43.37a2.77,2.77,0,0,0-3.56-2.65l-18.83,5.59a2.77,2.77,0,0,0-2,2.66V58.1H317a2.77,2.77,0,0,0-2.77,2.77V81.29h9.23V96.84q0,17.13,8.76,23.58T361.65,124m56.87-40.85V59.75A2.81,2.81,0,0,0,415.36,57,21,21,0,0,0,406,60.47a17.84,17.84,0,0,0-7.25,10.41v-10A2.77,2.77,0,0,0,396,58.1H377.16a2.77,2.77,0,0,0-2.77,2.77V124h24.37V99.47q0-9.09,5.93-13.24a18.91,18.91,0,0,1,13.83-3.1M532.68,124h24.37V85.9q0-14.76-6.52-22.2T533.2,56.26q-11.58,0-17.65,8.3V60.87a2.77,2.77,0,0,0-2.77-2.77H494a2.77,2.77,0,0,0-2.77,2.77V124h24.37V90.12q0-4.87,2.31-7.64a8.14,8.14,0,0,1,6.65-2.77q8.18,0,8.17,8.83ZM614.73,91a12.68,12.68,0,0,1-3.23,8.83,12,12,0,0,1-17,0,13.72,13.72,0,0,1,0-17.66,11.93,11.93,0,0,1,17,0A12.67,12.67,0,0,1,614.73,91m0,32.94H639.1V60.87a2.77,2.77,0,0,0-2.77-2.77H617.5a2.77,2.77,0,0,0-2.77,2.77V64q-6.33-7.77-17.66-7.77a27.22,27.22,0,0,0-21.73,9.88Q566.9,76,566.9,91t8.44,24.9a27.22,27.22,0,0,0,21.73,9.88q11.34,0,17.66-7.77Zm105.17,0L698.55,91,716,62.31a2.77,2.77,0,0,0-2.37-4.21H692.56a2.78,2.78,0,0,0-2.44,1.46l-13,24.1V35.39a2.77,2.77,0,0,0-3.51-2.67l-18.83,5.21a2.77,2.77,0,0,0-2,2.67V124h24.38V97.62L692.89,124Zm47.38,0h24.38V60.87a2.78,2.78,0,0,0-2.77-2.77H770.05a2.77,2.77,0,0,0-2.77,2.77V92q0,4.88-2.31,7.64a8.14,8.14,0,0,1-6.65,2.77q-8.16,0-8.17-8.83V60.87a2.77,2.77,0,0,0-2.77-2.77H728.55a2.77,2.77,0,0,0-2.77,2.77V96.18q0,14.75,6.52,22.2t17.33,7.44q11.6,0,17.65-8.3ZM853,91a12.68,12.68,0,0,1-3.23,8.83,11.94,11.94,0,0,1-17,0,13.68,13.68,0,0,1,0-17.66,11.92,11.92,0,0,1,17,0A12.67,12.67,0,0,1,853,91m24.37,0q0-15-8.43-24.9a27.26,27.26,0,0,0-21.74-9.88q-11.33,0-17.65,7.77V60.87a2.77,2.77,0,0,0-2.77-2.77H808a2.77,2.77,0,0,0-2.77,2.77v89.45h24.38V118.05q6.33,7.77,17.65,7.77A27.26,27.26,0,0,0,869,115.94q8.43-9.89,8.43-24.9"/><path class="cls-1" d="M449.45,63.71a6.24,6.24,0,0,0,3.89-3,12,12,0,0,0,1.32-3.82,41.83,41.83,0,0,0,.22-5.06,42.14,42.14,0,0,0-.22-5.07,12.85,12.85,0,0,0-1.32-3.89,6.21,6.21,0,0,0-3.89-3.09,25,25,0,0,0-7.35-.88,25.6,25.6,0,0,0-7.49.88,6.24,6.24,0,0,0-3.89,3,11.84,11.84,0,0,0-1.32,3.82,42.14,42.14,0,0,0-.22,5.07,42.14,42.14,0,0,0,.22,5.07,12.58,12.58,0,0,0,1.32,3.89,6.14,6.14,0,0,0,3.89,3.08,25,25,0,0,0,7.34.88,25.63,25.63,0,0,0,7.5-.88"/><path class="cls-1" d="M297.6,63.71a6.18,6.18,0,0,0,3.89-3,11.53,11.53,0,0,0,1.32-3.82,41.83,41.83,0,0,0,.22-5.06,42.14,42.14,0,0,0-.22-5.07,12.32,12.32,0,0,0-1.32-3.89,6.16,6.16,0,0,0-3.89-3.09,25,25,0,0,0-7.34-.88,25.63,25.63,0,0,0-7.5.88,6.24,6.24,0,0,0-3.89,3,12.09,12.09,0,0,0-1.32,3.82,44.36,44.36,0,0,0-.22,5.07,44.36,44.36,0,0,0,.22,5.07,12.85,12.85,0,0,0,1.32,3.89,6.14,6.14,0,0,0,3.89,3.08,25,25,0,0,0,7.35.88,25.6,25.6,0,0,0,7.49-.88"/><path class="cls-1" d="M61.55,100.24a4.41,4.41,0,0,0-4.41,4.41,22.87,22.87,0,0,0,45.74,0,4.41,4.41,0,1,0-8.82,0,14.05,14.05,0,0,1-28.1,0A4.4,4.4,0,0,0,61.55,100.24Z"/><path class="cls-1" d="M80,43.47A14.05,14.05,0,0,0,66,57.28H94A14,14,0,0,0,80,43.47Z"/><path class="cls-1" d="M154.8,33.89Q149.31,16.51,136,9.62T112.21,1.37Q101.7,0,80.61,0T49,1.37Q38.48,2.75,24.73,9.62T5.5,33.89Q0,51.31,0,79.69,0,109,5.5,126.41t18.77,24.27c2.3,1.19,4.54,2.25,6.72,3.2l.14,0-.12,0V65.33c0-8,8.06-8,8.06-8h18.1a22.84,22.84,0,0,1,45.68,0H121c8.06,0,8.06,8,8.06,8v88.35s.05,0,.08,0c2.13-.82,4.26-1.9,6.48-3q13.73-6.87,19.23-24.27t5.5-45.8Q160.3,51.3,154.8,33.89Z"/><rect class="cls-2" width="877.39" height="160.3"/><rect class="cls-2" width="877.39" height="160.3"/></g></g></svg>