<svg xmlns="http://www.w3.org/2000/svg" viewBox="0 0 877.39 160.3"><defs><style>.cls-1{fill:#293c32;}.cls-2{fill:none;}</style></defs><title>hn-logo_black</title><g id="Layer_2" data-name="Layer 2"><g id="Layer_1-2" data-name="Layer 1"><path class="cls-1" d="M80,43.47A14.05,14.05,0,0,0,66,57.28H94A14,14,0,0,0,80,43.47Z"/><path class="cls-1" d="M61.55,100.24a4.41,4.41,0,0,0-4.41,4.41,22.87,22.87,0,0,0,45.74,0,4.41,4.41,0,1,0-8.82,0,14.05,14.05,0,0,1-28.1,0A4.4,4.4,0,0,0,61.55,100.24Z"/><path class="cls-1" d="M154.8,33.89Q149.31,16.51,136,9.62T112.21,1.37Q101.7,0,80.61,0T49,1.37Q38.48,2.75,24.73,9.62T5.5,33.89Q0,51.31,0,79.69,0,109,5.5,126.41t18.77,24.27c2.3,1.19,4.54,2.25,6.72,3.2l.13,0-.11,0V65.33c0-8,8.06-8,8.06-8h18.1a22.84,22.84,0,0,1,45.68,0H121c8.06,0,8.06,8,8.06,8v88.35s.06,0,.08,0c2.13-.82,4.26-1.9,6.48-3q13.73-6.87,19.23-24.27t5.5-45.8Q160.3,51.3,154.8,33.89Z"/><path class="cls-1" d="M427.17,67.38v57.85h25.32V67.6a11.76,11.76,0,0,1-1.3.53A38.78,38.78,0,0,1,440,69.44a37.62,37.62,0,0,1-11-1.31,13,13,0,0,1-1.85-.75M242.44,125.23h25.32V85.68q0-15.33-6.78-23.06t-18-7.74q-12,0-18.34,8.62V33.21A2.88,2.88,0,0,0,221,30.43l-19.57,5.41a2.88,2.88,0,0,0-2.11,2.77v86.62h25.32V90.06q0-5.07,2.4-7.94A8.46,8.46,0,0,1,234,79.25c5.65,0,8.49,3,8.49,9.17Zm35.82,0h25.32V67.49a12.85,12.85,0,0,1-1.59.64,38.65,38.65,0,0,1-11.19,1.31,37.62,37.62,0,0,1-11-1.31,13.18,13.18,0,0,1-1.57-.64Zm83.85,0V102.51a63.75,63.75,0,0,1-7.87.07,7.25,7.25,0,0,1-4.86-1.85c-1.1-1.09-1.64-2.78-1.64-5.06V80.88h14.37V59.68a2.88,2.88,0,0,0-2.88-2.88H347.74V41.5a2.88,2.88,0,0,0-3.7-2.76l-19.57,5.81a2.87,2.87,0,0,0-2.05,2.76V56.8h-6.71a2.88,2.88,0,0,0-2.88,2.88v21.2h9.59V97q0,17.79,9.1,24.5t30.59,3.69M418.26,82.8V58.51A2.91,2.91,0,0,0,415,55.63a21.73,21.73,0,0,0-9.72,3.63,18.55,18.55,0,0,0-7.53,10.82V59.68a2.88,2.88,0,0,0-2.88-2.88H375.29a2.88,2.88,0,0,0-2.88,2.88v65.55h25.32V99.77q0-9.43,6.16-13.75a19.62,19.62,0,0,1,14.37-3.22m115.66,42.43h25.32V85.68q0-15.33-6.77-23.06t-18-7.74q-12,0-18.34,8.62V59.68a2.88,2.88,0,0,0-2.88-2.88H493.69a2.88,2.88,0,0,0-2.88,2.88v65.55h25.32V90.06q0-5.07,2.4-7.94a8.45,8.45,0,0,1,6.91-2.87q8.47,0,8.48,9.17ZM613.3,91a13.18,13.18,0,0,1-3.35,9.18,12.41,12.41,0,0,1-17.66,0,14.23,14.23,0,0,1,0-18.34,12.39,12.39,0,0,1,17.66,0A13.15,13.15,0,0,1,613.3,91m0,34.22h25.32V59.68a2.88,2.88,0,0,0-2.87-2.88H616.18a2.88,2.88,0,0,0-2.88,2.88V63q-6.57-8.07-18.34-8.08a28.31,28.31,0,0,0-22.58,10.27Q563.62,75.41,563.62,91t8.76,25.87A28.31,28.31,0,0,0,595,127.15q11.77,0,18.34-8.08Zm106.33,0L697.46,91,715.6,61.17a2.87,2.87,0,0,0-2.46-4.37H691.23a2.88,2.88,0,0,0-2.53,1.51l-13.55,25V33.21a2.88,2.88,0,0,0-3.64-2.78l-19.57,5.41a2.87,2.87,0,0,0-2.11,2.77v86.62h25.32V97.86l16.42,27.37Zm46.3,0h25.32V59.68a2.88,2.88,0,0,0-2.88-2.88H768.81a2.88,2.88,0,0,0-2.88,2.88V92q0,5.07-2.4,7.94a8.45,8.45,0,0,1-6.91,2.88q-8.48,0-8.48-9.18V59.68a2.88,2.88,0,0,0-2.88-2.88H725.7a2.88,2.88,0,0,0-2.88,2.88V96.35q0,15.33,6.77,23.06t18,7.74q12,0,18.34-8.63ZM852.07,91a13.18,13.18,0,0,1-3.35,9.18,12.41,12.41,0,0,1-17.66,0,14.23,14.23,0,0,1,0-18.34,12.39,12.39,0,0,1,17.66,0A13.15,13.15,0,0,1,852.07,91m25.32,0q0-15.6-8.76-25.86a28.31,28.31,0,0,0-22.58-10.27q-11.77,0-18.34,8.08V59.68a2.88,2.88,0,0,0-2.88-2.88H805.27a2.88,2.88,0,0,0-2.88,2.88V152.6h25.32V119.07q6.57,8.09,18.34,8.08a28.31,28.31,0,0,0,22.58-10.27q8.76-10.26,8.76-25.87"/><path class="cls-1" d="M447.45,62.63a6.47,6.47,0,0,0,4.05-3.13,12.28,12.28,0,0,0,1.37-4,44.76,44.76,0,0,0,.23-5.26,45.07,45.07,0,0,0-.23-5.27,13.19,13.19,0,0,0-1.37-4,6.39,6.39,0,0,0-4.05-3.2,26,26,0,0,0-7.63-.92,26.66,26.66,0,0,0-7.78.92,6.44,6.44,0,0,0-4,3.13,12.23,12.23,0,0,0-1.37,4,42.83,42.83,0,0,0-.23,5.27,42.64,42.64,0,0,0,.23,5.26,13,13,0,0,0,1.37,4,6.39,6.39,0,0,0,4,3.21,26.06,26.06,0,0,0,7.63.91,26.66,26.66,0,0,0,7.78-.91"/><path class="cls-1" d="M298.49,62.63a6.44,6.44,0,0,0,4-3.13,12.09,12.09,0,0,0,1.38-4,45.25,45.25,0,0,0,.22-5.26,45.56,45.56,0,0,0-.22-5.27,13,13,0,0,0-1.38-4,6.37,6.37,0,0,0-4-3.2,26,26,0,0,0-7.63-.92,26.61,26.61,0,0,0-7.78.92,6.44,6.44,0,0,0-4,3.13,12.28,12.28,0,0,0-1.38,4,45.44,45.44,0,0,0-.22,5.27,45.25,45.25,0,0,0,.22,5.26,13.07,13.07,0,0,0,1.38,4,6.39,6.39,0,0,0,4,3.21,26.06,26.06,0,0,0,7.63.91,26.7,26.7,0,0,0,7.78-.91"/><rect class="cls-2" width="877.39" height="160.3"/><rect class="cls-2" width="877.39" height="160.3"/></g></g></svg>