<?xml version="1.0" encoding="UTF-8"?>
<svg width="15px" height="13px" viewBox="0 0 15 13" version="1.1" xmlns="http://www.w3.org/2000/svg" xmlns:xlink="http://www.w3.org/1999/xlink">
    <!-- Generator: Sketch 57.1 (83088) - https://sketch.com -->
    <title>logout-icon</title>
    <desc>Created with Sketch.</desc>
    <g id="mobile" stroke="none" stroke-width="1" fill="none" fill-rule="evenodd">
        <g id="Recommender-M-leftnav-Copy" transform="translate(-49.000000, -162.000000)" fill="#4A4A4A" fill-rule="nonzero">
            <g id="logout-icon" transform="translate(49.000000, 162.000000)">
                <g id="_ionicons_svg_ios-log-out">
                    <path d="M9.37145021,10.4784689 C9.09811624,10.4784689 8.87447936,10.7045455 8.87447936,10.9808612 C8.87447936,11.3361244 8.58694623,11.6267943 8.23551685,11.6267943 L1.6329042,11.6267943 C1.28147482,11.6267943 0.993941689,11.3361244 0.993941689,10.9808612 L0.993941689,1.6507177 C0.993941689,1.29545455 1.28147482,1.00478469 1.6329042,1.00478469 L8.23551685,1.00478469 C8.58694623,1.00478469 8.87447936,1.29545455 8.87447936,1.6507177 C8.87447936,1.92703349 9.09811624,2.15311005 9.37145021,2.15311005 C9.64478417,2.15311005 9.86842105,1.92703349 9.86842105,1.6507177 C9.86842105,0.73923445 9.13716395,0 8.23551685,0 L1.6329042,0 C0.7312571,0 0,0.73923445 0,1.6507177 L0,10.9808612 C0,11.8923445 0.7312571,12.6315789 1.6329042,12.6315789 L8.23551685,12.6315789 C9.13716395,12.6315789 9.86842105,11.8923445 9.86842105,10.9808612 C9.86842105,10.7045455 9.64478417,10.4784689 9.37145021,10.4784689 Z" id="Shape"></path>
                    <path d="M11.7024042,2.91389319 C11.6081871,2.81830495 11.4813565,2.76315789 11.3436547,2.76315789 C11.2095766,2.76315789 11.0791223,2.81462848 10.9849053,2.91389319 C10.7856,3.11609907 10.7856,3.43962848 10.9849053,3.64183437 L13.3475783,6.00212848 L4.05995402,6.00212848 C3.78092668,6.00212848 3.55263158,6.23374613 3.55263158,6.51683437 C3.55263158,6.7999226 3.78092668,7.03154025 4.05995402,7.03154025 L13.3584495,7.03154025 L11.0537562,9.38815789 C10.8580747,9.58668731 10.8580747,9.91389319 11.0537562,10.1160991 L11.0573799,10.1197755 C11.1552207,10.2116873 11.2820513,10.2631579 11.4125056,10.2631579 C11.5502074,10.2631579 11.677038,10.2116873 11.7712551,10.1124226 L14.7644574,7.08301084 C14.9202779,6.9249226 15,6.74109907 15,6.54256966 C15,6.34771672 14.9166542,6.16389319 14.7644574,6.00948142 L11.7024042,2.91389319 Z" id="Shape"></path>
                </g>
            </g>
        </g>
    </g>
</svg>