<?xml version="1.0" encoding="UTF-8"?>
<svg width="81px" height="22px" viewBox="0 0 81 22" version="1.1" xmlns="http://www.w3.org/2000/svg" xmlns:xlink="http://www.w3.org/1999/xlink">
    <!-- Generator: Sketch 54.1 (76490) - https://sketchapp.com -->
    <title>tus_trgovina_logo</title>
    <desc>Created with Sketch.</desc>
    <g id="HN-landing" stroke="none" stroke-width="1" fill="none" fill-rule="evenodd">
        <g id="HN-landing-v2" transform="translate(-616.000000, -40.000000)" fill="#00763B" fill-rule="nonzero">
            <g id="Group-33" transform="translate(575.000000, 31.000000)">
                <g id="Group-29">
                    <g id="Group-32">
                        <g id="tus_trgovina_logo" transform="translate(41.600000, 8.800000)">
                            <g id="Group-22">
                                <g id="Group-17">
                                    <g id="tus_logo">
                                        <g id="Group-10" transform="translate(0.000000, 0.022374)">
                                            <path d="M4.11518351,17.8112675 C2.37951966,17.8112675 1.77074492,16.8979515 1.77074492,15.7568555 L1.77074492,11.251566 L0.122655123,11.251566 L0.122655123,9.3404085 L1.77074492,9.3404085 L1.77074492,7.37582783 L4.56134828,6.62241538 L4.56134828,9.3404085 L7.31279407,9.3404085 L6.53581542,11.251566 L4.56134828,11.251566 L4.56134828,14.7233375 C4.56134828,15.3208715 4.81712628,15.6187238 5.39310896,15.6187238 C5.88884757,15.6187238 6.44708399,15.4271689 6.77905525,15.2497017 L7.48196248,16.8622751 C6.38998724,17.5977579 4.98629466,17.8112675 4.11518351,17.8112675" id="Fill-2"></path>
                                            <path d="M20.7099983,17.8112675 C19.1482932,17.8112675 17.9336763,17.4713726 17.049062,16.9192061 L17.8970094,14.992949 C18.7069459,15.5460456 19.5917522,15.8314308 20.4038004,15.8314308 C21.1885885,15.8314308 21.6514368,15.5999972 21.6514368,15.1696869 C21.6514368,14.02796 17.6025219,14.51278 17.6025219,11.6766017 C17.6025219,10.0541477 19.0004735,9.00302221 21.1523054,9.00302221 C22.369034,9.00302221 23.1964402,9.16190031 23.9480168,9.42905361 L23.9480168,11.6403239 C23.1232982,11.3186609 22.2194866,11.0511355 21.2632662,11.0511355 C20.5848315,11.0511355 20.2901521,11.2321524 20.2901521,11.5536293 C20.2901521,12.5145254 24.4083694,12.1067259 24.4083694,15.1014103 C24.4083694,17.0773401 22.5867321,17.8112675 20.7099983,17.8112675" id="Fill-4"></path>
                                            <path d="M13.5251877,9.47914358 L13.5251877,14.268362 C13.5251877,15.026879 13.1139906,15.6872643 12.1428571,15.7341039 C11.1717238,15.6872643 10.7605266,15.026879 10.7605266,14.268362 L10.7605266,9.47914358 L7.97258297,9.47914358 L7.97258297,14.3892901 C7.97258297,17.2087508 10.013945,17.6128539 11.1347795,17.7426869 C13.7499318,18.0463431 16.3131313,17.4133848 16.3131313,14.3892901 L16.3131313,9.47914358 L13.5251877,9.47914358 Z" id="Fill-6"></path>
                                            <polygon id="Fill-8" points="21.0945502 0.194776923 22.1650378 3.28657469 25.6349206 3.28657469 22.8281356 5.1977688 23.8945551 8.28884016 21.0945502 6.37800924 18.2889275 8.28884016 19.3599962 5.1977688 16.5584416 3.28657469 20.0225129 3.28657469"></polygon>
                                        </g>
                                    </g>
                                </g>
                                <path d="M31.5025253,17.3762626 C31.2550505,17.5353535 30.6363636,17.8888889 29.7171717,17.8888889 C28.3030303,17.8888889 27.5959596,17.0580808 27.5959596,15.6439394 L27.5959596,10.2171717 L26.1994949,10.2171717 L26.1994949,9.19191919 L27.5959596,9.19191919 L27.5959596,6.77020202 L28.8863636,6.77020202 L28.8863636,9.19191919 L31.0252525,9.19191919 L31.0252525,10.2171717 L28.8863636,10.2171717 L28.8863636,15.520202 C28.8863636,16.3686869 29.1338384,16.7752525 29.8762626,16.7752525 C30.4065657,16.7752525 30.8838384,16.510101 31.0252525,16.4040404 L31.5025253,17.3762626 Z M37.0378788,9.15656566 L36.719697,10.3939394 C36.6313131,10.3409091 36.4191919,10.2525253 35.9772727,10.2525253 C34.7045455,10.2525253 33.9974747,11.719697 33.8914141,11.9848485 L33.8914141,17.6767677 L32.6010101,17.6767677 L32.6010101,9.19191919 L33.8914141,9.19191919 L33.8914141,10.5176768 C34.2272727,9.9520202 34.969697,8.97979798 36.1540404,8.97979798 C36.6666667,8.97979798 36.9318182,9.10353535 37.0378788,9.15656566 Z M42.0959596,9.19191919 L44.8535354,9.19191919 L44.8535354,10.2171717 L43.5454545,10.2171717 C43.9520202,10.729798 44.1641414,11.3838384 44.1641414,12.0909091 C44.1641414,13.8762626 42.8383838,15.2020202 40.770202,15.2020202 C40.4343434,15.2020202 40.1338384,15.1666667 39.8333333,15.0959596 C39.6212121,15.2020202 39.2676768,15.4141414 39.2676768,15.8030303 C39.2676768,16.2626263 39.7979798,16.4393939 40.469697,16.4747475 C42.3257576,16.5808081 44.8888889,16.4217172 44.8888889,19.0555556 C44.8888889,20.8055556 42.9090909,21.8661616 40.7171717,21.8661616 C38.8257576,21.8661616 37.3232323,21.1767677 37.3232323,19.4974747 C37.3232323,18.5429293 37.9242424,17.7828283 38.7727273,17.3055556 C38.3131313,17.0757576 38.0126263,16.7045455 38.0126263,16.0505051 C38.0126263,15.4848485 38.4015152,15.0075758 38.8787879,14.7247475 C37.9242424,14.1944444 37.3762626,13.2222222 37.3762626,12.0909091 C37.3762626,10.3055556 38.7020202,8.97979798 40.770202,8.97979798 C41.2474747,8.97979798 41.6893939,9.05050505 42.0959596,9.19191919 Z M42.8383838,12.0909091 C42.8383838,10.9065657 42.0782828,10.040404 40.770202,10.040404 C39.4621212,10.040404 38.7020202,10.9065657 38.7020202,12.0909091 C38.7020202,13.2752525 39.4621212,14.1414141 40.770202,14.1414141 C42.0782828,14.1414141 42.8383838,13.2752525 42.8383838,12.0909091 Z M39.7449495,17.5707071 C38.9671717,18.030303 38.5959596,18.6313131 38.5959596,19.3560606 C38.5959596,20.1691919 39.25,20.8409091 40.770202,20.8409091 C42.4494949,20.8409091 43.5808081,20.1515152 43.5808081,19.1085859 C43.5808081,17.7651515 42.3787879,17.7474747 41.3888889,17.6944444 C40.8409091,17.6590909 40.2575758,17.6414141 39.7449495,17.5707071 Z M53.2878788,13.4166667 C53.2878788,15.3964646 52.1565657,17.8888889 49.2929293,17.8888889 C46.4292929,17.8888889 45.3686869,15.4318182 45.3686869,13.4520202 C45.3686869,11.4722222 46.3762626,8.97979798 49.239899,8.97979798 C52.1035354,8.97979798 53.2878788,11.4368687 53.2878788,13.4166667 Z M51.9090909,13.4520202 C51.9090909,11.6313131 50.989899,10.0934343 49.2222222,10.0934343 C47.4545455,10.0934343 46.7474747,11.5959596 46.7474747,13.4166667 C46.7474747,15.2373737 47.5429293,16.7752525 49.3106061,16.7752525 C51.0782828,16.7752525 51.9090909,15.2727273 51.9090909,13.4520202 Z M57.3560606,15.979798 L57.3914141,15.979798 L59.760101,9.19191919 L61.0858586,9.19191919 L57.9570707,17.6767677 L56.7550505,17.6767677 L53.520202,9.19191919 L54.9343434,9.19191919 L57.3560606,15.979798 Z M62.8560606,5.69191919 C63.3863636,5.69191919 63.8106061,6.11616162 63.8106061,6.64646465 C63.8106061,7.17676768 63.3863636,7.6010101 62.8560606,7.6010101 C62.3257576,7.6010101 61.9015152,7.17676768 61.9015152,6.64646465 C61.9015152,6.11616162 62.3257576,5.69191919 62.8560606,5.69191919 Z M63.510101,17.6767677 L62.2020202,17.6767677 L62.2020202,9.19191919 L63.510101,9.19191919 L63.510101,17.6767677 Z M72.2979798,17.6767677 L71.0075758,17.6767677 L71.0075758,11.8787879 C71.0075758,10.8181818 70.6363636,10.1464646 69.5050505,10.1464646 C68.1969697,10.1464646 67.2247475,11.4545455 67.0479798,11.7020202 L67.0479798,17.6767677 L65.7575758,17.6767677 L65.7575758,9.19191919 L67.0479798,9.19191919 L67.0479798,10.4116162 C67.4191919,9.93434343 68.3207071,8.97979798 69.8055556,8.97979798 C71.5909091,8.97979798 72.2979798,10.1641414 72.2979798,11.6313131 L72.2979798,17.6767677 Z M80.0782828,17.6767677 L78.7878788,17.6767677 C78.7348485,17.4469697 78.6818182,16.9166667 78.6641414,16.6515152 C78.2752525,17.1464646 77.3914141,17.8888889 76.1186869,17.8888889 C74.7045455,17.8888889 73.6969697,16.9873737 73.6969697,15.6085859 C73.6969697,13.3636364 76.1717172,12.6919192 78.2222222,12.6919192 L78.5934343,12.6919192 L78.5934343,11.8964646 C78.5934343,10.8181818 78.2222222,10.1287879 76.8964646,10.1287879 C75.6944444,10.1287879 75.0050505,10.7828283 74.6868687,11.0479798 L73.9974747,10.1464646 C74.4217172,9.75757576 75.3232323,8.97979798 76.9848485,8.97979798 C78.8409091,8.97979798 79.8838384,9.86363636 79.8838384,11.790404 L79.8838384,15.75 C79.8838384,16.5984848 79.9722222,17.270202 80.0782828,17.6767677 Z M78.5934343,15.5555556 L78.5934343,13.6464646 L78.2222222,13.6464646 C76.4015152,13.6464646 75.0757576,14.1414141 75.0757576,15.5732323 C75.0757576,16.4570707 75.8181818,16.7752525 76.3308081,16.7752525 C77.5858586,16.7752525 78.3106061,15.9267677 78.5934343,15.5555556 Z" id="trgovina"></path>
                            </g>
                        </g>
                    </g>
                </g>
            </g>
        </g>
    </g>
</svg>